<?xml version="1.0" encoding="utf-8"?>
<!-- Generator: Adobe Illustrator 16.0.0, SVG Export Plug-In . SVG Version: 6.00 Build 0)  -->
<!DOCTYPE svg PUBLIC "-//W3C//DTD SVG 1.1//EN" "http://www.w3.org/Graphics/SVG/1.1/DTD/svg11.dtd">
<svg version="1.1" id="Layer_1" xmlns="http://www.w3.org/2000/svg" xmlns:xlink="http://www.w3.org/1999/xlink" x="0px" y="0px"
	 width="275.582px" height="60.078px" viewBox="0 0 275.582 60.078" enable-background="new 0 0 275.582 60.078"
	 xml:space="preserve">
<g id="TMzpsy_1_">
	<g>
		<path fill-rule="evenodd" clip-rule="evenodd" fill="#1A1B1B" d="M54.082,30.122c0,4.166-0.081,8.336,0.033,12.498
			c0.059,2.135-1.021,3.436-2.656,4.365c-7.264,4.131-14.585,8.16-21.833,12.318c-1.776,1.02-3.303,1.035-5.062,0.031
			c-7.258-4.141-14.562-8.201-21.835-12.314c-1.654-0.936-2.74-2.186-2.723-4.316C0.076,34.288,0.084,25.872,0,17.458
			c-0.021-2.133,1.023-3.437,2.657-4.365c7.263-4.131,14.584-8.16,21.832-12.317c1.777-1.02,3.303-1.036,5.063-0.032
			c7.258,4.141,14.562,8.201,21.834,12.316c1.655,0.936,2.771,2.184,2.723,4.316C54.014,21.622,54.082,25.874,54.082,30.122z
			 M46.422,19.508c-4.298-6.48-10.051-9.852-17.359-10.363c-5.637-0.396-10.65,1.557-14.909,5.188
			C7.975,19.6,5.893,26.483,7.289,34.297c0.956,5.35,3.989,9.637,8.504,12.709c5.999,4.082,12.506,5.205,19.41,2.684
			c5.171-1.889,9.145-5.271,11.765-10.141c-0.245-0.863-0.89-1.168-1.585-1.506c-4.879-2.373-9.745-4.775-14.599-7.201
			c-0.31-0.156-0.483-0.58-0.857-1.053c2.822-1.717,5.503-3.312,8.148-4.967C40.789,23.125,43.719,21.749,46.422,19.508z"/>
		<path fill-rule="evenodd" clip-rule="evenodd" fill="#1A1B1B" d="M42.617,38.342c0.936,0.471,1.651,0.832,2.497,1.258
			c-1.121,2.604-2.95,4.406-5.025,5.879c-4.42,3.137-9.286,4.521-14.793,3.697c-7.706-1.154-12.937-5.361-15.788-12.467
			c-1.306-3.256-1.627-6.746-0.874-10.26c1.695-7.918,6.586-13.082,14.228-15.158c7.632-2.072,15.354,0.254,20.678,6.572
			c0.993,1.18,0.618,2.206-0.865,2.574c-0.785,0.195-1.178-0.294-1.645-0.826c-1.764-2.018-3.809-3.65-6.313-4.727
			c-2.829-1.217-5.772-1.67-8.764-1.26c-6.102,0.834-10.579,4.035-13.266,9.648c-3.522,7.357-0.727,15.324,4.83,19.678
			c3.967,3.107,8.471,4.174,13.555,3.248c4.519-0.824,7.912-3.148,10.684-6.627C42.005,39.256,42.22,38.909,42.617,38.342z"/>
	</g>
</g>
<g id="BZjzf2_1_">
	<g>
		<path fill-rule="evenodd" clip-rule="evenodd" fill="#1A1B1B" d="M209.728,24.099c3.71-3.374,7.95-4.091,12.127-2.134
			c2.22,1.039,3.648,2.809,4.378,5.091c1.36,4.264,1.396,8.571-0.074,12.811c-1.284,3.704-4.626,5.966-8.832,6.021
			c-1.421,0.019-2.895-0.096-4.265-0.458c-3.849-1.019-6.189-3.897-6.59-7.859c-0.074-0.744-0.119-1.495-0.119-2.242
			c-0.007-8.185-0.006-16.37-0.002-24.556c0-0.401,0.015-0.81,0.091-1.202c0.158-0.821,0.728-1.24,1.523-1.268
			c0.794-0.028,1.401,0.347,1.624,1.148c0.104,0.382,0.132,0.795,0.132,1.194c0.009,4.122,0.005,8.243,0.005,12.364
			C209.728,23.324,209.728,23.639,209.728,24.099z M223.95,33.491c-0.13-2.195-0.295-4.346-1.384-6.3
			c-1.425-2.561-3.756-3.366-6.504-3.18c-2.947,0.199-4.937,1.856-6.271,4.397c-0.061,0.119-0.059,0.281-0.059,0.423
			c0.003,2.624-0.054,5.25,0.041,7.871c0.073,2.007,0.812,3.756,2.542,4.965c1.39,0.969,2.96,1.267,4.597,1.195
			c3.533-0.155,5.671-1.909,6.469-5.363C223.683,36.189,223.767,34.829,223.95,33.491z"/>
		<path fill-rule="evenodd" clip-rule="evenodd" fill="#1A1B1B" d="M83.13,28.388c0.329,1.947,0.547,4.343,1.16,6.632
			c1.099,4.11,3.911,6.557,8.078,7.362c3.719,0.718,7.308,0.45,10.486-1.867c0.711-0.518,1.303-1.215,1.89-1.881
			c0.786-0.893,1.671-1.091,2.487-0.476c0.804,0.608,0.854,1.651,0.132,2.602c-1.979,2.607-4.702,4.075-7.804,4.762
			c-4.129,0.912-8.202,0.555-12.066-1.257c-3.077-1.44-5.179-3.874-6.291-7.032c-2.138-6.066-2.235-12.241-0.123-18.311
			c1.908-5.481,6.073-8.363,11.738-9.148c3.712-0.514,7.3-0.155,10.633,1.73c1.499,0.848,2.791,1.931,3.857,3.285
			c0.741,0.942,0.76,2,0.036,2.633c-0.779,0.68-1.832,0.536-2.624-0.463c-4.074-5.139-11.698-5.011-15.953-2.313
			c-2.928,1.856-4.354,4.694-4.962,7.977C83.48,24.373,83.381,26.163,83.13,28.388z"/>
		<path fill-rule="evenodd" clip-rule="evenodd" fill="#1A1B1B" d="M116.982,24.283c3.121-3.851,7.058-3.886,11.161-2.703
			c3.167,0.914,4.705,3.339,5.12,6.515c0.115,0.882,0.148,1.78,0.151,2.671c0.015,4.295,0.013,8.59,0.003,12.885
			c-0.004,1.368-0.662,2.052-1.833,1.966c-0.789-0.058-1.29-0.476-1.44-1.246c-0.082-0.421-0.096-0.858-0.099-1.288
			c-0.023-4.467-0.009-8.935-0.078-13.401c-0.013-0.872-0.262-1.762-0.529-2.603c-0.479-1.509-1.528-2.48-3.08-2.859
			c-1.861-0.454-3.736-0.458-5.537,0.184c-2.701,0.964-3.723,3.178-3.786,5.823c-0.103,4.321-0.04,8.646-0.058,12.97
			c-0.002,0.428-0.024,0.871-0.137,1.279c-0.217,0.796-0.799,1.173-1.614,1.146c-0.816-0.028-1.357-0.444-1.529-1.254
			c-0.076-0.362-0.09-0.743-0.09-1.116c-0.005-10.867-0.005-21.734-0.003-32.602c0-1.577,0.545-2.346,1.654-2.36
			c1.137-0.014,1.723,0.797,1.724,2.395c0.001,4.18,0,8.359,0,12.539C116.982,23.527,116.982,23.831,116.982,24.283z"/>
		<path fill-rule="evenodd" clip-rule="evenodd" fill="#1A1B1B" d="M234.205,34.379c-0.317,5.735,4.353,9.614,9.798,8.186
			c1.23-0.323,2.368-1.002,3.539-1.536c0.338-0.155,0.63-0.414,0.971-0.56c0.68-0.292,1.315-0.183,1.783,0.412
			c0.464,0.587,0.527,1.292-0.013,1.809c-0.736,0.709-1.514,1.464-2.418,1.897c-3.919,1.875-7.913,1.868-11.824-0.008
			c-2.459-1.179-3.906-3.297-4.604-5.874c-0.946-3.486-0.97-7.015,0.002-10.501c1.321-4.729,5.087-7.397,10.179-7.231
			c1.139,0.037,2.312,0.171,3.399,0.494c3.951,1.173,5.662,4.188,6.237,8.006c0.148,0.983,0.111,2.015,0.015,3.01
			c-0.138,1.445-0.69,1.89-2.15,1.893c-4.612,0.008-9.225,0.003-13.838,0.003C234.94,34.379,234.599,34.379,234.205,34.379z
			 M248.04,31.416c0.019-5.042-2.398-7.579-6.943-7.455c-4.689,0.127-6.817,3.892-6.817,7.455
			C238.844,31.416,243.409,31.416,248.04,31.416z"/>
		<path fill-rule="evenodd" clip-rule="evenodd" fill="#1A1B1B" d="M258.441,34.379c-0.427,5.628,4.327,9.599,9.765,8.191
			c1.23-0.319,2.368-0.999,3.543-1.527c0.233-0.104,0.433-0.284,0.658-0.411c0.871-0.488,1.659-0.378,2.162,0.293
			c0.457,0.612,0.433,1.524-0.31,2.081c-1.115,0.838-2.284,1.703-3.57,2.189c-2.621,0.99-5.371,0.981-8.08,0.299
			c-3.528-0.888-5.868-3.114-6.883-6.605c-1.045-3.591-1.075-7.237-0.008-10.825c1.397-4.698,5.066-7.248,10.101-7.096
			c1.14,0.035,2.312,0.167,3.401,0.489c3.951,1.167,5.672,4.174,6.256,7.992c0.146,0.956,0.123,1.958,0.034,2.925
			c-0.144,1.56-0.678,2-2.231,2.002c-4.613,0.006-9.227,0.002-13.838,0.002C259.127,34.379,258.814,34.379,258.441,34.379z
			 M272.248,31.414c0.134-4.829-2.207-7.417-6.649-7.449c-4.704-0.034-7.033,3.528-7.109,7.449
			C263.054,31.414,267.621,31.414,272.248,31.414z"/>
		<path fill-rule="evenodd" clip-rule="evenodd" fill="#1A1B1B" d="M183.81,24.195c3.257-3.384,7.436-4.228,11.777-2.394
			c2.774,1.172,4.09,3.419,4.467,6.294c0.115,0.882,0.148,1.78,0.15,2.671c0.017,4.295,0.015,8.59,0.003,12.884
			c-0.003,1.368-0.66,2.052-1.833,1.966c-0.787-0.058-1.288-0.476-1.438-1.245c-0.083-0.422-0.099-0.859-0.1-1.289
			c-0.022-4.467-0.009-8.935-0.078-13.4c-0.013-0.872-0.262-1.762-0.529-2.603c-0.479-1.508-1.527-2.48-3.079-2.86
			c-1.86-0.455-3.736-0.458-5.537,0.184c-2.7,0.962-3.725,3.176-3.787,5.821c-0.104,4.35-0.041,8.704-0.059,13.056
			c-0.002,0.398-0.029,0.812-0.135,1.193c-0.222,0.796-0.799,1.174-1.614,1.147s-1.357-0.442-1.53-1.251
			c-0.078-0.362-0.091-0.743-0.091-1.115c-0.005-6.544-0.004-13.086-0.004-19.63c0.001-1.576,0.547-2.346,1.656-2.358
			c1.111-0.012,1.697,0.774,1.724,2.309C183.778,23.765,183.796,23.954,183.81,24.195z"/>
		<path fill-rule="evenodd" clip-rule="evenodd" fill="#1A1B1B" d="M139.039,30.586c0-2.335-0.004-4.67,0.003-7.005
			c0.001-0.344,0.021-0.694,0.087-1.03c0.154-0.776,0.672-1.199,1.439-1.263c0.808-0.067,1.412,0.309,1.683,1.069
			c0.14,0.395,0.159,0.848,0.16,1.275c0.018,4.497-0.028,8.994,0.044,13.49c0.058,3.582,1.797,5.351,5.366,5.551
			c1.053,0.06,2.129-0.04,3.177-0.19c2.077-0.298,3.252-1.64,3.705-3.6c0.23-1,0.327-2.05,0.336-3.08
			c0.036-4.208,0.024-8.417,0.007-12.625c-0.002-0.885,0.329-1.527,1.162-1.816c1.146-0.398,2.143,0.403,2.149,1.726
			c0.014,3.229,0.004,6.457,0.004,9.686c0,1.413,0.007,2.825-0.001,4.238c-0.029,5.607-3.073,8.759-8.667,8.887
			c-1.374,0.031-2.774-0.031-4.125-0.271c-3.621-0.639-5.681-2.687-6.22-6.331c-0.29-1.953-0.232-3.959-0.305-5.942
			C139.011,32.432,139.039,31.509,139.039,30.586z"/>
		<path fill-rule="evenodd" clip-rule="evenodd" fill="#1A1B1B" d="M167.93,24.887c1.544-2.584,3.813-3.663,6.593-3.842
			c1.226-0.079,2.048,0.514,2.117,1.523c0.069,0.99-0.674,1.701-1.936,1.723c-4.273,0.076-6.595,3.109-6.77,6.941
			c-0.181,3.998-0.062,8.009-0.086,12.014c-0.003,0.428-0.023,0.874-0.147,1.277c-0.244,0.783-0.838,1.143-1.654,1.095
			c-0.778-0.045-1.295-0.454-1.472-1.216c-0.083-0.36-0.096-0.742-0.097-1.115c-0.005-6.57-0.004-13.141,0-19.712
			c0-0.343,0.021-0.693,0.089-1.029c0.166-0.82,0.73-1.24,1.526-1.267c0.794-0.027,1.444,0.341,1.613,1.151
			C167.863,23.183,167.854,23.968,167.93,24.887z"/>
	</g>
</g>
</svg>
